<?xml version="1.0"?>
<svg xmlns="http://www.w3.org/2000/svg" xmlns:xlink="http://www.w3.org/1999/xlink" xmlns:svgjs="http://svgjs.com/svgjs" version="1.1" width="512" height="512" x="0" y="0" viewBox="0 0 64 64" style="enable-background:new 0 0 512 512" xml:space="preserve" class=""><g><path xmlns="http://www.w3.org/2000/svg" d="m44.275 43.047c3.984-6.493 6.725-14.797 6.725-20.547 0-10.77-9.611-19.5-19-19.5s-19 8.73-19 19.5c0 5.75 2.741 14.054 6.725 20.547a11.979 11.979 0 0 0 -5.3 9.354l-.425 8.599h36l-.43-8.6a11.979 11.979 0 0 0 -5.295-9.353z" fill="#c30d30" data-original="#ec455a" style="" class=""/><path xmlns="http://www.w3.org/2000/svg" d="m42 40c0 3.314-6.686 10-10 10s-10-6.686-10-10 6.686-6 10-6 10 2.686 10 6z" fill="#4e4e4e" data-original="#3e3d42" style="" class=""/><circle xmlns="http://www.w3.org/2000/svg" cx="32" cy="40" fill="#ffcbbe" r="6" data-original="#ffcbbe" style="" class=""/><path xmlns="http://www.w3.org/2000/svg" d="m32 42a14 14 0 0 1 -14-14v-7l1-1.163a16.713 16.713 0 0 1 12.688-5.837h.71a16.716 16.716 0 0 1 13.602 7v7a14 14 0 0 1 -14 14z" fill="#ffdbcb" data-original="#ffddce" style="" class=""/><g xmlns="http://www.w3.org/2000/svg" fill="#3e3d42"><path d="m30.86 14.02 2.14 4.98 2.05-4.78a15.538 15.538 0 0 0 -2.65-.22h-.71c-.28 0-.56.01-.83.02-.11.01-.21.01-.31.02a16.475 16.475 0 0 0 -4.97 1.12l2.42 4.84 2.55-5.96z" fill="#4e4e4e" data-original="#3e3d42" style="" class=""/><path d="m26 27a1 1 0 0 0 1-1v-2a1 1 0 0 0 -2 0v2a1 1 0 0 0 1 1z" fill="#4e4e4e" data-original="#3e3d42" style="" class=""/><path d="m38 27a1 1 0 0 0 1-1v-2a1 1 0 0 0 -2 0v2a1 1 0 0 0 1 1z" fill="#4e4e4e" data-original="#3e3d42" style="" class=""/><path d="m32 37c3.925 0 7-2.2 7-5h-2c0 1.626-2.29 3-5 3s-5-1.374-5-3h-2c0 2.8 3.075 5 7 5z" fill="#4e4e4e" data-original="#3e3d42" style="" class=""/><path d="m34.236 51-.249-.124a1.99 1.99 0 0 0 -3.974 0l-.249.124a4.973 4.973 0 0 0 -2.764 4.472v.528h2v-.528a2.985 2.985 0 0 1 1.658-2.683l.243-.121a1.985 1.985 0 0 0 2.2 0l.243.121a2.985 2.985 0 0 1 1.656 2.683v2.528h2v-2.528a4.973 4.973 0 0 0 -2.764-4.472z" fill="#4e4e4e" data-original="#3e3d42" style="" class=""/></g></g></svg>
