<?xml version="1.0"?>
<svg xmlns="http://www.w3.org/2000/svg" xmlns:xlink="http://www.w3.org/1999/xlink" xmlns:svgjs="http://svgjs.com/svgjs" version="1.1" width="512" height="512" x="0" y="0" viewBox="0 0 512 512" style="enable-background:new 0 0 512 512" xml:space="preserve" class=""><g><path xmlns="http://www.w3.org/2000/svg" d="m273.779 128.783 11.721 96.883q.422.407.832.824l97.4 11.734c-7.906-56.652-53.055-101.594-109.953-109.441z" fill="#545151" data-original="#000000" style=""/><path xmlns="http://www.w3.org/2000/svg" d="m256 90.792c-91.473 0-165.891 74.108-165.891 165.208s74.418 165.208 165.891 165.208 165.891-74.108 165.891-165.208-74.418-165.208-165.891-165.208zm0 303.651c-76.633 0-138.979-62.1-138.979-138.443s62.346-138.443 138.979-138.443 138.979 62.105 138.979 138.443-62.346 138.443-138.979 138.443z" fill="#545151" data-original="#000000" style=""/><path xmlns="http://www.w3.org/2000/svg" d="m298.421 256a41.889 41.889 0 0 1 -4.19 18.311l90.528-10.9c.14-2.454.22-4.924.22-7.413 0-2.546-.083-5.073-.231-7.582l-90.613-10.916a41.892 41.892 0 0 1 4.286 18.5z" fill="#545151" data-original="#000000" style=""/><path xmlns="http://www.w3.org/2000/svg" d="m285.442 286.39-11.724 96.836c56.983-7.832 102.2-52.868 110.044-109.62l-97.24 11.706q-.53.549-1.08 1.078z" fill="#545151" data-original="#000000" style=""/><path xmlns="http://www.w3.org/2000/svg" d="m256 60.188c-108.25 0-196.318 87.841-196.318 195.812s88.068 195.812 196.318 195.812 196.318-87.841 196.318-195.812-88.068-195.812-196.318-195.812zm0 371.02c-96.986 0-175.891-78.6-175.891-175.208s78.905-175.208 175.891-175.208 175.891 78.598 175.891 175.208-78.905 175.208-175.891 175.208z" fill="#545151" data-original="#000000" style=""/><path xmlns="http://www.w3.org/2000/svg" d="m409.8 118.969 18.36-22.181-12.54-12.509-22.24 18.313a208.1 208.1 0 0 1 16.42 16.377z" fill="#545151" data-original="#000000" style=""/><path xmlns="http://www.w3.org/2000/svg" d="m256 213.728a42.286 42.286 0 0 1 18.5 4.237l-10.911-90.18c-2.511-.146-5.038-.228-7.585-.228s-5.05.081-7.549.225l-10.921 90.168a42.284 42.284 0 0 1 18.466-4.222z" fill="#545151" data-original="#000000" style=""/><path xmlns="http://www.w3.org/2000/svg" d="m256 298.272a42.284 42.284 0 0 1 -18.47-4.223l10.91 90.168c2.5.145 5.021.226 7.56.226s5.034-.081 7.524-.224l10.916-90.155a42.286 42.286 0 0 1 -18.44 4.208z" fill="#545151" data-original="#000000" style=""/><path xmlns="http://www.w3.org/2000/svg" d="m352.34 42.458-16.44-6.648-13.265 25.4a205.266 205.266 0 0 1 21.494 8.729z" fill="#545151" data-original="#000000" style=""/><path xmlns="http://www.w3.org/2000/svg" d="m226.53 225.637 11.727-96.859c-56.9 7.831-102.062 52.763-109.989 109.41l97.432-11.729c.27-.279.549-.551.83-.822z" fill="#545151" data-original="#000000" style=""/><ellipse xmlns="http://www.w3.org/2000/svg" cx="256" cy="256" rx="32.421" ry="32.272" fill="#545151" data-original="#000000" style=""/><path xmlns="http://www.w3.org/2000/svg" d="m213.579 256a41.88 41.88 0 0 1 4.3-18.528l-90.626 10.91c-.149 2.522-.234 5.06-.234 7.618 0 2.477.079 4.935.218 7.378l90.517 10.9a41.893 41.893 0 0 1 -4.175-18.278z" fill="#545151" data-original="#000000" style=""/><path xmlns="http://www.w3.org/2000/svg" d="m225.448 285.281-97.215-11.712c7.831 56.758 53.034 101.805 110.013 109.652l-11.719-96.86q-.549-.531-1.079-1.08z" fill="#545151" data-original="#000000" style=""/><path xmlns="http://www.w3.org/2000/svg" d="m102.2 393.031-18.36 22.181 12.54 12.509 22.237-18.313a207.768 207.768 0 0 1 -16.417-16.377z" fill="#545151" data-original="#000000" style=""/><path xmlns="http://www.w3.org/2000/svg" d="m325.6 449.748 13.657 25.2 16.34-6.9-8.636-27.348a205.5 205.5 0 0 1 -21.361 9.048z" fill="#545151" data-original="#000000" style=""/><path xmlns="http://www.w3.org/2000/svg" d="m244.4 461.48 2.73 28.52h17.748l2.73-28.52c-3.842.213-7.709.332-11.6.332s-7.77-.119-11.608-.332z" fill="#545151" data-original="#000000" style=""/><path xmlns="http://www.w3.org/2000/svg" d="m159.66 469.542 16.44 6.648 13.265-25.4a205.266 205.266 0 0 1 -21.494-8.729z" fill="#545151" data-original="#000000" style=""/><path xmlns="http://www.w3.org/2000/svg" d="m462.418 256c0 3.881-.02 7.735-.233 11.564l28.815-2.727v-17.674l-28.766-2.727c.214 3.829.184 7.683.184 11.564z" fill="#545151" data-original="#000000" style=""/><path xmlns="http://www.w3.org/2000/svg" d="m475.505 172.941-6.905-16.281-27.44 8.619a204.454 204.454 0 0 1 9.068 21.293z" fill="#545151" data-original="#000000" style=""/><path xmlns="http://www.w3.org/2000/svg" d="m393.38 409.408 22.236 18.313 12.54-12.509-18.356-22.181a208.1 208.1 0 0 1 -16.42 16.377z" fill="#545151" data-original="#000000" style=""/><path xmlns="http://www.w3.org/2000/svg" d="m442.531 343.891 27.564 8.2 6.656-16.384-25.477-13.241a203.875 203.875 0 0 1 -8.743 21.425z" fill="#545151" data-original="#000000" style=""/><path xmlns="http://www.w3.org/2000/svg" d="m69.468 168.109-27.563-8.2-6.656 16.384 25.477 13.241a204.3 204.3 0 0 1 8.742-21.425z" fill="#545151" data-original="#000000" style=""/><path xmlns="http://www.w3.org/2000/svg" d="m267.6 50.52-2.726-28.52h-17.748l-2.726 28.52c3.842-.213 7.709-.332 11.6-.332s7.762.119 11.6.332z" fill="#545151" data-original="#000000" style=""/><path xmlns="http://www.w3.org/2000/svg" d="m36.495 339.059 6.905 16.281 27.44-8.619a204.454 204.454 0 0 1 -9.068-21.293z" fill="#545151" data-original="#000000" style=""/><path xmlns="http://www.w3.org/2000/svg" d="m186.4 62.252-13.657-25.2-16.34 6.9 8.637 27.355a205.5 205.5 0 0 1 21.36-9.055z" fill="#545151" data-original="#000000" style=""/><path xmlns="http://www.w3.org/2000/svg" d="m118.621 102.592-22.237-18.313-12.54 12.509 18.36 22.181a207.768 207.768 0 0 1 16.417-16.377z" fill="#545151" data-original="#000000" style=""/><path xmlns="http://www.w3.org/2000/svg" d="m49.583 256c0-3.881.019-7.735.232-11.564l-28.815 2.727v17.674l28.766 2.727c-.214-3.829-.183-7.683-.183-11.564z" fill="#545151" data-original="#000000" style=""/></g></svg>
