<?xml version="1.0"?>
<svg xmlns="http://www.w3.org/2000/svg" xmlns:xlink="http://www.w3.org/1999/xlink" xmlns:svgjs="http://svgjs.com/svgjs" version="1.1" width="512" height="512" x="0" y="0" viewBox="0 0 512.00043 512" style="enable-background:new 0 0 512 512" xml:space="preserve" class=""><g><path xmlns="http://www.w3.org/2000/svg" d="m269.679688 38.253906c-115.210938-26.542968-230.117188 45.335938-256.660157 160.542969-26.539062 115.207031 45.339844 230.117187 160.546875 256.660156 115.207032 26.539063 230.117188-45.339843 256.65625-160.546875 26.542969-115.207031-45.335937-230.117187-160.542968-256.65625zm0 0" fill="#6ff7ff" data-original="#69e6ed" style="" class=""/><path xmlns="http://www.w3.org/2000/svg" d="m269.65625 38.25c-27.042969-6.230469-54.070312-7.035156-79.941406-3.128906 5.488281.824218 10.988281 1.863281 16.484375 3.128906 115.207031 26.535156 187.085937 141.441406 160.550781 256.644531-20.308594 88.164063-92.367188 150.953125-176.707031 163.679688 109.488281 16.445312 214.890625-53.972657 240.164062-163.679688 26.535157-115.203125-45.34375-230.109375-160.550781-256.644531zm0 0" fill="#00d5db" data-original="#33d8dd" style="" class=""/><path xmlns="http://www.w3.org/2000/svg" d="m235.1875 316.828125c-24.707031-6.300781-41.386719-85.476563-95.300781-72.097656-17.253907 4.28125-64.332031-34.8125-59.375-46.027344 12.023437-27.214844-12.601563-36.714844.175781-52.714844 6.949219-8.699219 15.574219-18.308593 26.777344-8.835937 11.199218 9.472656 7.082031 29.175781 17.109375 31.078125 10.03125 1.902343 16.871093-21.386719 22.890625-34.546875 21.679687-47.394532 82.8125-32.023438 102.710937-50.953125 15.132813-14.390625 21.300781-31.816407 18.859375-44.617188-113.996094-25.90625-227.527344 44.453125-255.296875 157.703125 19.144531 31.570313 63.730469 58.011719 78.109375 67.832032 4.699219 3.214843 6.140625 9.503906 3.253906 14.410156-8.195312 13.910156-19.457031 41.828125 5.648438 62.546875 34.753906 28.691406 34.734375 41.988281 20.597656 71.660156-3.570312 7.496094-6.253906 13.792969-8.292968 19.132813 15.339843 9.019531 32.03125 16.242187 49.855468 21.308593 13.511719-19.890625 37.726563-36.957031 49.785156-42.300781 20.769532-9.203125 62.050782-6.5 72.183594-50.503906 4.816406-20.90625-24.984375-36.777344-49.691406-43.074219zm0 0" fill="#8bff05" data-original="#8fd143" style="" class=""/><path xmlns="http://www.w3.org/2000/svg" d="m206.199219 38.25c21.355469 4.917969 41.214843 12.878906 59.238281 23.308594 3.714844-8.355469 4.910156-16.566406 3.597656-23.445313-26.824218-6.09375-53.625-6.855469-79.289062-2.988281 5.476562.824219 10.964844 1.859375 16.453125 3.125zm0 0" fill="#5ea700" data-original="#7bb72e" style="" class=""/><path xmlns="http://www.w3.org/2000/svg" d="m329.277344 61.773438c-13.304688 33.742187-1.953125 68.039062-1.953125 91.0625 0 23.023437-13.847657 35.679687-13.847657 64.375 0 65.230468 71.074219 47.59375 71.074219 67.3125 0 73.328124-63.066406 80-39.03125 136.859374 41.296875-29.296874 72.429688-73.261718 84.6875-126.488281 21.582031-93.703125-21.945312-187.203125-100.929687-233.121093zm0 0" fill="#8bff05" data-original="#8fd143" style="" class=""/><path xmlns="http://www.w3.org/2000/svg" d="m430.207031 294.894531c21.582031-93.703125-21.941406-187.203125-100.929687-233.121093-6.554688 16.621093-7.121094 33.371093-6.015625 48.847656 36.605469 44.429687 55.003906 103.113281 47.234375 163.355468 8.265625 2.335938 14.054687 4.921876 14.054687 10.546876 0 73.328124-63.066406 80.003906-39.035156 136.859374 41.300781-29.296874 72.429687-73.261718 84.691406-126.488281zm0 0" fill="#5ea700" data-original="#7bb72e" style="" class=""/><path xmlns="http://www.w3.org/2000/svg" d="m451.757812 310.28125v-255.0625c0-26.304688-21.324218-47.628906-47.628906-47.628906-26.300781 0-47.625 21.324218-47.625 47.628906v255.0625c-21.308594 14.996094-35.238281 39.777344-35.238281 67.8125 0 45.761719 37.101563 82.863281 82.863281 82.863281 45.765625 0 82.863282-37.101562 82.863282-82.863281 0-28.035156-13.925782-52.816406-35.234376-67.8125zm0 0" fill="#ffffff" data-original="#d8d8d8" style="" class=""/><path xmlns="http://www.w3.org/2000/svg" d="m404.128906 433.816406c-31.554687 0-57.226562-25.671875-57.226562-57.226562 0-23.960938 14.894531-45.296875 37.234375-53.617188v-267.753906c0-11.027344 8.96875-19.996094 19.992187-19.996094 11.027344 0 19.996094 8.96875 19.996094 19.996094v267.75c22.339844 8.324219 37.234375 29.660156 37.234375 53.621094 0 31.554687-25.675781 57.226562-57.230469 57.226562zm0 0" fill="#fff5e5" data-original="#f3e8d7" style="" class=""/><path xmlns="http://www.w3.org/2000/svg" d="m384.136719 81.785156v241.183594c-22.339844 8.324219-37.234375 29.660156-37.234375 53.621094 0 31.554687 25.671875 57.226562 57.226562 57.226562 31.554688 0 57.230469-25.671875 57.230469-57.226562 0-23.960938-14.894531-45.296875-37.234375-53.621094v-241.183594zm0 0" fill="#ff3c00" data-original="#fc4e51" style="" class=""/><path xmlns="http://www.w3.org/2000/svg" d="m424.125 322.96875v-241.183594h-39.988281v241.183594c-.003907 0-.003907.003906-.003907.003906 8.613282 10.117188 13.660157 23.160156 13.660157 37.101563 0 24.507812-15.492188 45.460937-37.195313 53.601562 10.503906 12.3125 26.117188 20.140625 43.53125 20.140625 31.554688 0 57.230469-25.671875 57.230469-57.226562 0-23.960938-14.894531-45.296875-37.234375-53.621094zm0 0" fill="#ff0909" data-original="#e5394b" style="" class=""/><path xmlns="http://www.w3.org/2000/svg" d="m504.503906 156.605469h-21.113281c-4.140625 0-7.496094 3.355469-7.496094 7.496093 0 4.144532 3.355469 7.5 7.496094 7.5h21.113281c4.140625 0 7.496094-3.355468 7.496094-7.5 0-4.140624-3.355469-7.496093-7.496094-7.496093zm0 0" fill="#000000" data-original="#000000" style="" class=""/><path xmlns="http://www.w3.org/2000/svg" d="m483.390625 117.601562h15.585937c4.144532 0 7.5-3.355468 7.5-7.5 0-4.140624-3.359374-7.496093-7.5-7.496093h-15.585937c-4.140625 0-7.496094 3.355469-7.496094 7.496093 0 4.144532 3.355469 7.5 7.496094 7.5zm0 0" fill="#000000" data-original="#000000" style="" class=""/><path xmlns="http://www.w3.org/2000/svg" d="m483.390625 63.601562h21.113281c4.140625 0 7.496094-3.355468 7.496094-7.496093s-3.355469-7.5-7.496094-7.5h-21.113281c-4.140625 0-7.496094 3.359375-7.496094 7.5s3.355469 7.496093 7.496094 7.496093zm0 0" fill="#000000" data-original="#000000" style="" class=""/><path xmlns="http://www.w3.org/2000/svg" d="m504.503906 264.605469h-21.113281c-4.140625 0-7.496094 3.359375-7.496094 7.5s3.355469 7.496093 7.496094 7.496093h21.113281c4.140625 0 7.496094-3.355468 7.496094-7.496093s-3.355469-7.5-7.496094-7.5zm0 0" fill="#000000" data-original="#000000" style="" class=""/><path xmlns="http://www.w3.org/2000/svg" d="m483.390625 225.601562h15.585937c4.144532 0 7.5-3.355468 7.5-7.5 0-4.140624-3.359374-7.496093-7.5-7.496093h-15.585937c-4.140625 0-7.496094 3.355469-7.496094 7.496093 0 4.144532 3.355469 7.5 7.496094 7.5zm0 0" fill="#000000" data-original="#000000" style="" class=""/><path xmlns="http://www.w3.org/2000/svg" d="m459.277344 306.289062v-251.183593c0-30.382813-24.71875-55.105469-55.105469-55.105469s-55.105469 24.722656-55.105469 55.105469v10.3125c-127.5-89.695313-307.6875-22.511719-343.171875 131.53125-41.253906 179.105469 141.742188 327.402343 308.054688 251.070312 3.761719-1.726562 5.414062-6.179687 3.6875-9.941406-1.726563-3.765625-6.175781-5.414063-9.941407-3.6875-41.53125 19.0625-87.058593 23.765625-131.703124 13.621094 12.515624-14.277344 30.003906-26.632813 39.851562-30.996094 19.410156-8.601563 65.167969-6.769531 76.429688-55.65625 5.703124-24.761719-23.578126-43.964844-55.128907-52.007813-19.390625-4.945312-39.917969-86.722656-98.921875-72.082031-2.355468.585938-10.554687-.890625-24.675781-10.675781-15.546875-10.773438-24.617187-22.125-25.652344-25.859375 7.03125-16.621094 2.488281-28.101563-.84375-36.523437-2.894531-7.324219-3.585937-9.617188-.339843-13.6875 8.660156-10.839844 11.539062-11.617188 16.066406-7.789063 8.90625 7.535156 4.394531 29.644531 20.546875 32.707031 16.980469 3.234375 23.957031-23.171875 31.097656-38.777344 19.9375-43.585937 78.1875-26.90625 101.019531-48.621093 12.601563-11.980469 20.28125-26.648438 21.53125-40.316407 15.160156 4.1875 29.597656 10 43.210938 17.382813-10.617188 33.703125-.289063 66.640625-.289063 87.578125 0 20.929688-13.84375 34.316406-13.84375 64.351562 0 31.929688 15.292969 49.617188 43.011719 58.605469v30.644531c-22.125 17.0625-35.21875 43.527344-35.21875 71.570313 0 49.808594 40.519531 90.328125 90.328125 90.328125 49.804687 0 90.328125-40.519531 90.328125-90.328125 0-28.046875-13.09375-54.511719-35.222656-71.570313zm-441.398438-92.527343c21.796875 25.753906 54.054688 45.0625 69.898438 55.886719 1.445312.988281 1.894531 2.925781 1.023437 4.40625-16.640625 28.25-13.964843 54.535156 7.332031 72.113281 39.140626 32.304687 27.777344 40.535156 13.449219 73.992187-65.949219-42.566406-105.371093-122.453125-91.703125-206.398437zm227.230469-136.582031c-16.863281 16.035156-80.9375 2.125-104.324219 53.246093-3.714844 8.121094-10.238281 26.554688-14.707031 29.960938-2.894531-5.074219-2.914063-20.046875-13.617187-29.101563-5.027344-4.25-10.351563-6.132812-15.839844-5.597656-9.269532.90625-16.023438 8.464844-21.625 15.480469-8.816406 11.039062-4.972656 20.753906-1.886719 28.558593 2.941406 7.429688 5.71875 14.449219.710937 25.78125-2.625 5.9375-.171874 13.257813 7.5 22.382813 11.886719 14.144531 42.6875 38.355469 60.515626 33.929687 48.515624-12.03125 61.8125 64.460938 91.605468 72.058594 16.550782 4.21875 48.035156 17.542969 44.21875 34.113282-9.019531 39.152343-45.535156 35.40625-67.890625 45.3125-12.359375 5.476562-34.984375 21.246093-49.679687 40.433593-13.515625-4.222656-25.988282-9.605469-37.484375-15.886719 1.660156-3.964843 3.554687-8.183593 5.664062-12.609374 15.640625-32.839844 14.578125-49.957032-22.589843-80.640626-19.542969-16.128906-12.9375-37.6875-3.957032-52.9375 4.863282-8.257812 2.453125-18.972656-5.484375-24.394531-13.585937-9.285156-55.289062-34.210937-74.25-62.90625 27.546875-105.480469 133.191407-171.59375 240.144531-150.179687-.175781 8.761718-4.59375 21.171875-17.023437 32.996094zm75.9375 139.859374c0-26.894531 13.84375-39.652343 13.84375-64.351562 0-21.675781-9.164063-50.78125-1.398437-79.699219 4.917968 3.167969 10.023437 6.761719 15.574218 11.117188v175.671875c-14.820312-5.640625-28.019531-15.898438-28.019531-42.738282zm83.125 236.152344c-41.539063 0-75.332031-33.796875-75.332031-75.332031 0-24.492187 11.976562-47.539063 32.035156-61.65625 1.996094-1.402344 3.183594-3.691406 3.183594-6.128906v-254.96875c0-22.117188 17.996094-40.109375 40.113281-40.109375s40.113281 17.992187 40.113281 40.109375v254.96875c0 2.4375 1.1875 4.726562 3.183594 6.128906 20.0625 14.117187 32.035156 37.164063 32.035156 61.65625 0 41.539063-33.792968 75.332031-75.332031 75.332031zm0 0" fill="#000000" data-original="#000000" style="" class=""/><path xmlns="http://www.w3.org/2000/svg" d="m431.65625 317.78125v-139.882812c0-4.140626-3.359375-7.5-7.496094-7.5-4.140625 0-7.5 3.359374-7.5 7.5v144.859374c0 3.128907 1.949219 5.929688 4.882813 7.023438 19.339843 7.207031 32.335937 25.925781 32.335937 46.574219 0 27.410156-22.296875 49.707031-49.707031 49.707031s-49.707031-22.296875-49.707031-49.707031c0-20.648438 12.996094-39.367188 32.339844-46.574219 2.933593-1.09375 4.878906-3.894531 4.878906-7.023438v-233.59375h24.976562v58.714844c0 4.140625 3.359375 7.496094 7.5 7.496094 4.136719 0 7.496094-3.355469 7.496094-7.496094v-92.773437c0-15.152344-12.328125-27.480469-27.484375-27.480469s-27.484375 12.328125-27.484375 27.480469v262.679687c-22.460938 10.554688-37.21875 33.464844-37.21875 58.570313 0 35.675781 29.027344 64.703125 64.703125 64.703125s64.703125-29.027344 64.703125-64.703125c0-25.105469-14.757812-48.011719-37.21875-58.574219zm-27.484375-275.164062c6.886719 0 12.488281 5.601562 12.488281 12.488281v19.0625h-24.976562v-19.0625c0-6.886719 5.601562-12.488281 12.488281-12.488281zm0 0" fill="#000000" data-original="#000000" style="" class=""/></g></svg>
