<?xml version="1.0"?>
<svg xmlns="http://www.w3.org/2000/svg" xmlns:xlink="http://www.w3.org/1999/xlink" xmlns:svgjs="http://svgjs.com/svgjs" version="1.1" width="512" height="512" x="0" y="0" viewBox="0 0 512 512" style="enable-background:new 0 0 512 512" xml:space="preserve" class=""><g><g xmlns="http://www.w3.org/2000/svg" id="solid"><path d="m147.738 199.315v29.155a64.386 64.386 0 0 0 14.44-28.444 47.552 47.552 0 0 0 -14.44-.711z" fill="#868686" data-original="#000000" style="" class=""/><path d="m416.051 209.986a8.009 8.009 0 0 1 -1.477-1.163l-55.492-55.494 4.366 28.383a8 8 0 0 1 -8.365 9.2c-2.618-.15-5.183-.227-7.624-.227a130.714 130.714 0 0 0 -46.234 8.369 143.01 143.01 0 0 1 -85.215 122.413c0 .227-.01.453-.01.681 0 72.487 58.973 131.459 131.459 131.459s131.458-58.972 131.458-131.459a130.688 130.688 0 0 0 -62.866-112.162zm-28.74 157.3a8 8 0 0 1 -10.594-3.972l-8.778-19.314h-47.878l-8.778 19.311a8 8 0 0 1 -14.566-6.622l40-88a8 8 0 0 1 14.566 0l40 88a8 8 0 0 1 -3.972 10.594z" fill="#868686" data-original="#000000" style="" class=""/><path d="m285.474 190.737a126.737 126.737 0 1 0 -192.866 108.133 7.985 7.985 0 0 1 1.477 1.163l53.029 53.03-4.093-26.6a8 8 0 0 1 8.363-9.2c2.529.144 5 .218 7.353.218a126.881 126.881 0 0 0 126.737-126.744zm-89.174 60.012a8 8 0 0 1 -11.315-11.314 19.62 19.62 0 0 0 -1.1-28.773 48.542 48.542 0 0 0 -6.648-4.789 80.5 80.5 0 0 1 -21.22 37.163 31.573 31.573 0 0 1 -46.977-2.6 31.573 31.573 0 0 1 6.3-45.413 64.256 64.256 0 0 1 16.394-8.452v-26.571h-32a8 8 0 0 1 0-16h32v-24a8 8 0 0 1 16 0v24h40a8 8 0 0 1 0 16h-40v23.246a63.961 63.961 0 0 1 16 .783v-8.029a8 8 0 0 1 16 0v9.766c0 1.1-.021 2.205-.065 3.3a64.367 64.367 0 0 1 14.624 9.448 35.624 35.624 0 0 1 2.007 52.235z" fill="#868686" data-original="#000000" style="" class=""/><path d="m118.271 218.571a15.539 15.539 0 0 0 13.467 17.571v-32.3a48.349 48.349 0 0 0 -7.094 4.2 15.421 15.421 0 0 0 -6.373 10.529z" fill="#868686" data-original="#000000" style="" class=""/><path d="m327.333 328h33.334l-16.667-36.667z" fill="#868686" data-original="#000000" style="" class=""/></g></g></svg>
